HIERARCHY
ROOT root
{
	OFFSET 0.000000 0.000000 0.000000
	CHANNELS 6 Xposition Yposition Zposition Zrotation Yrotation Xrotation
	JOINT lhip
	{
		OFFSET 0.058581 -0.082280 -0.017664
		CHANNELS 3 Zrotation Yrotation Xrotation
		JOINT lknee
		{
			OFFSET 0.043451 -0.386469 0.008037
			CHANNELS 3 Zrotation Yrotation Xrotation
			JOINT lankle
			{
				OFFSET -0.014790 -0.426874 -0.037428
				CHANNELS 3 Zrotation Yrotation Xrotation
				JOINT ltoe
				{
					OFFSET 0.041054 -0.060286 0.122042
					CHANNELS 3 Zrotation Yrotation Xrotation
					End Site
					{
						OFFSET 0.000000 0.000000 0.000000
					}
				}
			}
		}
	}
	JOINT rhip
	{
		OFFSET -0.060310 -0.090513 -0.013543
		CHANNELS 3 Zrotation Yrotation Xrotation
		JOINT rknee
		{
			OFFSET -0.043257 -0.383688 -0.004843
			CHANNELS 3 Zrotation Yrotation Xrotation
			JOINT rankle
			{
				OFFSET 0.019056 -0.420046 -0.034562
				CHANNELS 3 Zrotation Yrotation Xrotation
				JOINT rtoe
				{
					OFFSET -0.034840 -0.062106 0.130323
					CHANNELS 3 Zrotation Yrotation Xrotation
					End Site
					{
						OFFSET 0.000000 0.000000 0.000000
					}
				}
			}
		}
	}
	JOINT lowerback
	{
		OFFSET 0.004439 0.124404 -0.038385
		CHANNELS 3 Zrotation Yrotation Xrotation
		JOINT upperback
		{
			OFFSET 0.004488 0.137956 0.026820
			CHANNELS 3 Zrotation Yrotation Xrotation
			JOINT chest
			{
				OFFSET -0.002265 0.056032 0.002855
				CHANNELS 3 Zrotation Yrotation Xrotation
				JOINT lowerneck
				{
					OFFSET -0.013390 0.211636 -0.033468
					CHANNELS 3 Zrotation Yrotation Xrotation
					JOINT upperneck
					{
						OFFSET 0.010113 0.088937 0.050410
						CHANNELS 3 Zrotation Yrotation Xrotation
						End Site
						{
							OFFSET 0.000000 0.000000 0.000000
						}
					}
				}
				JOINT lclavicle
				{
					OFFSET 0.071702 0.114000 -0.018898
					CHANNELS 3 Zrotation Yrotation Xrotation
					JOINT lshoulder
					{
						OFFSET 0.122921 0.045205 -0.019046
						CHANNELS 3 Zrotation Yrotation Xrotation
						JOINT lelbow
						{
							OFFSET 0.255332 -0.015649 -0.022946
							CHANNELS 3 Zrotation Yrotation Xrotation
							JOINT lwrist
							{
								OFFSET 0.265709 0.012698 -0.007375
								CHANNELS 3 Zrotation Yrotation Xrotation
								End Site
								{
									OFFSET 0.000000 0.000000 0.000000
								}
							}
						}
					}
				}
				JOINT rclavicle
				{
					OFFSET -0.082954 0.112472 -0.023707
					CHANNELS 3 Zrotation Yrotation Xrotation
					JOINT rshoulder
					{
						OFFSET -0.113228 0.046853 -0.008472
						CHANNELS 3 Zrotation Yrotation Xrotation
						JOINT relbow
						{
							OFFSET -0.260127 -0.014369 -0.031269
							CHANNELS 3 Zrotation Yrotation Xrotation
							JOINT rwrist
							{
								OFFSET -0.269108 0.006794 -0.006027
								CHANNELS 3 Zrotation Yrotation Xrotation
								End Site
								{
									OFFSET 0.000000 0.000000 0.000000
								}
							}
						}
					}
				}
			}
		}
	}
}
MOTION
Frames: 14
Frame Time: 0.033333
0.771338 0.718001 0.994423 -90.590060 -0.332990 87.526772 -0.849979 -0.357626 1.417504 0.364963 -8.784130 1.840060 1.153560 11.131324 -7.803654 0.000000 -0.000000 0.000000 0.872723 -3.231374 1.570986 -3.359955 0.734384 3.339897 2.749922 -11.125130 -7.959940 0.000000 -0.000000 0.000000 -0.687108 2.309585 6.297688 -0.535302 -2.935431 1.850385 -1.538145 0.560213 -1.535370 -0.779498 -2.166540 -7.170374 4.651632 -1.788064 -3.035769 -25.816239 -1.549872 0.260322 -52.542354 -0.566831 17.533955 -1.816115 -15.126599 14.597930 -12.865398 -6.950782 8.090383 23.352111 3.127472 2.688693 58.465678 -5.820297 16.594723 -0.995195 27.756809 10.584384 4.172386 5.948312 1.563992 
0.772648 0.717726 0.994848 -90.923913 -0.375394 87.609397 -0.934879 -0.428661 0.759012 0.167193 -8.614941 2.888664 1.429107 11.415101 -8.311569 0.000000 -0.000000 0.000000 0.755484 -2.995241 0.913414 -3.247630 0.669310 4.303461 2.777746 -11.307591 -8.047490 0.000000 -0.000000 0.000000 -0.744349 2.375456 6.329582 -0.436798 -2.953964 2.252770 -1.579963 0.381989 -1.598847 -0.868312 -2.089832 -7.136645 4.801902 -1.702594 -3.520475 -25.706041 -1.570379 0.133529 -52.517794 -0.497304 17.671369 -1.807799 -15.192362 14.282493 -13.293026 -6.928762 8.406759 23.065816 3.322272 2.533884 57.930987 -5.911696 16.945526 -0.185402 28.433175 11.592352 5.181698 6.140823 1.813813 
0.774189 0.718057 0.994745 -91.348902 -0.389984 87.540867 -0.924523 -0.539173 0.225483 -0.111003 -8.344491 3.984087 1.608271 11.669956 -8.733122 0.000000 -0.000000 0.000000 0.789678 -2.748170 0.327779 -3.293778 0.871401 5.266672 2.675407 -11.294592 -8.386069 0.000000 -0.000000 0.000000 -0.733566 2.428254 6.908685 -0.476123 -2.910559 2.287612 -1.574528 0.396340 -1.739137 -0.833677 -2.265182 -7.216114 4.860621 -1.593304 -3.610869 -25.498795 -1.722257 0.181677 -52.389309 -0.158089 17.765895 -1.943041 -15.734571 14.153975 -13.053409 -7.004703 7.856247 22.715454 3.571220 2.584249 57.514914 -6.075353 17.120783 0.515671 29.614654 11.857403 5.478827 6.384913 0.713575 
0.775095 0.718049 0.994518 -91.481429 -0.260040 87.452141 -0.628334 -0.883022 -0.787519 -0.767082 -8.046516 6.042194 1.693850 11.891015 -9.393895 0.000000 -0.000000 0.000000 0.820422 -2.725243 -0.121109 -3.013439 1.032229 6.151078 2.567383 -11.320104 -8.719789 0.000000 -0.000000 0.000000 -0.591027 2.509593 7.541170 -0.451789 -3.172076 2.129946 -1.526009 0.307575 -1.383000 -0.821036 -2.314659 -7.429666 4.899830 -1.715454 -4.030523 -25.090312 -1.713649 0.215632 -51.799570 0.193282 17.435703 -2.648473 -16.836363 14.372854 -13.261548 -7.658322 6.987871 22.059249 3.820417 2.597623 56.731339 -6.346227 17.325603 1.919399 31.129867 13.435283 6.105821 6.843191 0.289418 
0.776204 0.718118 0.994502 -91.384008 -0.174864 87.488369 -0.440364 -1.074437 -1.635278 -1.165767 -8.004322 7.382588 1.879609 11.999818 -10.043152 0.000000 -0.000000 0.000000 0.935905 -2.648978 -0.733743 -2.950650 1.092775 7.090220 2.406622 -11.487868 -9.180095 0.000000 -0.000000 0.000000 -0.571254 2.456555 8.262408 -0.346595 -3.347373 1.686302 -1.496668 0.193072 -1.228071 -0.666179 -2.136122 -7.738152 4.846545 -1.615265 -4.168940 -24.955418 -1.500976 -0.006519 -51.039833 0.729051 17.279288 -3.339416 -17.830168 14.411337 -12.610110 -8.105259 6.633848 21.956405 3.731417 2.448882 55.691025 -6.718687 17.728973 3.030091 32.500200 15.383046 5.601431 7.111929 1.566187 
0.777693 0.718262 0.993997 -91.579328 -0.181911 87.531555 -0.312236 -1.344682 -2.677171 -1.719746 -7.640460 9.147726 2.127560 12.196473 -10.734768 0.000000 -0.000000 0.000000 0.811576 -2.445695 -1.832647 -2.591422 1.115778 8.850238 2.277337 -11.454081 -9.927025 0.000000 -0.000000 0.000000 -0.612504 2.527941 9.192692 -0.367161 -3.259959 1.167373 -1.463212 0.095092 -0.962940 -0.683577 -2.054999 -7.992801 4.955603 -1.857870 -4.640990 -24.528236 -1.545973 -0.019535 -50.085178 1.295293 17.055861 -4.259021 -19.144634 14.247775 -12.076497 -8.944208 5.624239 21.525581 3.739201 2.271746 54.645340 -7.131384 17.978287 4.271439 34.517727 16.983774 5.095153 7.701584 1.584463 
0.779921 0.718591 0.993220 -91.551458 -0.106148 87.533298 -0.073188 -1.681334 -4.198334 -2.482429 -7.562828 11.735974 2.391143 12.646075 -11.724904 0.000000 -0.000000 0.000000 0.890104 -2.107585 -3.111161 -2.312483 1.188028 11.005148 2.043909 -11.762707 -10.874089 0.000000 -0.000000 0.000000 -0.793276 2.723696 10.377551 -0.130229 -3.017870 0.535970 -1.265928 -0.139645 -0.561008 -0.645790 -2.273204 -8.241335 4.955153 -1.918892 -4.941637 -24.235481 -1.710406 -0.047617 -49.254032 1.684423 16.847841 -4.929283 -20.414745 13.752482 -11.342974 -9.488659 4.646465 21.038613 4.032104 2.342583 53.587252 -7.791265 18.274605 5.032346 36.372132 18.044992 4.475814 8.075673 1.670193 
0.782264 0.718982 0.991141 -91.591246 -0.118014 87.500818 0.083777 -2.031475 -5.747158 -3.178573 -7.134796 14.471017 2.586560 12.881406 -12.825945 0.000000 -0.000000 0.000000 0.738129 -1.908898 -4.686705 -1.823551 1.087161 13.714713 1.661509 -11.938025 -12.260208 0.000000 -0.000000 0.000000 -0.935840 2.791055 10.541349 -0.001292 -3.315846 1.953837 -1.335783 0.053758 -0.365269 -0.375672 -1.683188 -8.888262 4.984600 -2.274536 -5.988294 -23.429954 -2.024267 -0.087915 -48.667021 1.721101 16.149344 -5.487321 -21.845326 12.932420 -11.131177 -9.852716 4.221154 20.587198 4.619556 2.134921 52.799383 -7.829054 17.996697 5.350060 37.861989 18.703764 3.736066 8.327484 2.526151 
0.785703 0.719358 0.988173 -91.579058 -0.079043 87.609622 0.452456 -2.234056 -7.815797 -4.239647 -6.729281 17.685569 2.966730 13.101875 -14.026000 0.000000 -0.000000 0.000000 0.590281 -1.635042 -6.779776 -1.220388 0.998066 17.032039 1.273477 -12.100341 -13.534095 0.000000 -0.000000 0.000000 -0.931442 2.783113 12.084821 0.069107 -3.256824 1.508892 -1.356728 0.027045 -0.175634 -0.272756 -1.479718 -9.501428 4.982989 -2.412035 -6.454830 -23.002449 -1.980648 -0.389811 -47.841267 2.112292 15.929086 -5.815700 -23.261766 12.806753 -10.269216 -10.249213 3.974185 20.346988 4.761307 1.908786 51.655489 -7.959120 17.906381 5.570580 39.230769 19.765713 2.994374 8.768076 3.821434 
0.791867 0.719233 0.980871 -90.988097 0.076599 88.708309 1.108319 -3.417556 -12.294830 -7.121797 -8.437024 23.032606 4.005582 17.298228 -17.188558 0.000000 -0.000000 0.000000 0.235901 -1.312165 -10.703393 1.014560 2.567283 21.422343 0.357979 -15.812467 -15.623436 0.000000 -0.000000 0.000000 -0.873754 2.035672 13.066849 -0.228186 -2.878943 -0.636240 -0.753301 0.850159 2.865992 -0.719456 -3.068787 -11.161898 5.158338 -2.269843 -7.883724 -21.654485 -1.459655 -1.234544 -47.341665 -0.541697 15.615488 -9.295783 -22.264267 13.311005 -4.462942 -12.359893 4.558437 18.949765 4.619722 0.836305 49.239964 -7.351178 11.501212 16.458771 38.832949 28.286578 -7.088291 8.946006 4.965359 
0.796161 0.719582 0.974579 -90.891923 0.110707 88.804614 1.632951 -3.480705 -14.506842 -8.380901 -7.802471 26.421080 4.224151 17.469933 -18.606708 0.000000 -0.000000 0.000000 0.005850 -1.276370 -12.786471 1.686497 2.369251 24.623433 0.254078 -16.043307 -16.841616 0.000000 -0.000000 0.000000 -0.790216 1.951958 15.102177 -0.406508 -2.738829 -1.251491 -0.579403 0.981308 3.452200 -0.524925 -3.015074 -12.167440 5.180817 -2.420935 -8.714158 -20.922768 -1.902142 -1.268248 -46.908560 -0.892491 15.258790 -9.683916 -23.521053 13.604420 -3.219877 -13.473090 3.712638 18.294556 5.293304 1.023713 48.429119 -6.955476 10.459178 17.313167 39.360478 29.739452 -8.577495 9.632342 4.555148 
0.801141 0.720314 0.967528 -90.619911 0.186111 89.200922 2.078592 -3.598159 -17.305767 -9.301157 -7.134420 30.013113 4.414115 17.416197 -19.951473 0.000000 -0.000000 0.000000 -0.132719 -1.298637 -15.478885 2.204449 1.814065 28.182291 -0.086113 -16.123982 -18.025010 0.000000 -0.000000 0.000000 -0.655994 1.881078 17.024537 -0.524333 -2.675895 -1.517610 -0.502143 1.013530 3.700519 -0.308184 -2.972829 -13.416171 5.296158 -2.874227 -9.747814 -20.342528 -2.427521 -1.635386 -46.206872 -1.226213 15.230375 -10.001204 -24.414662 13.747233 -1.428822 -14.948586 2.562926 17.741946 5.994252 0.853060 47.585072 -6.626826 10.164134 17.737112 39.651254 30.431995 -10.433577 10.283192 3.973653 
0.806438 0.721031 0.959862 -90.321780 0.230972 89.920047 2.520512 -3.740194 -20.475224 -10.097482 -6.273357 33.452449 4.713341 17.223937 -21.082451 0.000000 -0.000000 0.000000 -0.231562 -1.256855 -18.612533 2.579640 1.282829 31.777523 -0.357817 -16.289868 -19.186985 0.000000 -0.000000 0.000000 -0.583926 1.667723 19.698542 -0.714159 -2.639193 -3.088823 -0.297871 1.009670 3.828517 -0.463612 -2.803224 -14.177104 5.776902 -2.906958 -10.758059 -20.257556 -3.039258 -1.583953 -44.758976 -0.924425 14.908924 -10.500800 -26.115653 14.291118 1.342629 -16.369997 1.854938 17.497903 6.945654 1.216646 46.300969 -6.510919 9.597988 18.744237 39.895674 31.556796 -12.617702 11.304218 3.698727 
0.811463 0.721860 0.950919 -90.023456 0.076541 90.572177 2.740284 -4.017917 -23.550514 -10.794667 -5.428247 36.886750 4.858372 17.176543 -22.428138 0.000000 -0.000000 0.000000 -0.642682 -1.524236 -21.516387 2.747573 0.476491 35.202807 -0.645084 -15.981109 -20.413240 0.000000 -0.000000 0.000000 -0.752855 1.667957 21.851377 -0.782106 -2.572840 -3.359450 -0.091335 1.108786 3.564259 -0.585893 -3.100115 -14.915996 6.254736 -3.003895 -12.648893 -20.022142 -3.663221 -1.626997 -43.515582 -1.303567 15.041287 -11.108557 -27.773780 14.608868 4.728208 -18.121614 0.601733 17.164086 7.741481 1.394735 44.874854 -6.047560 9.497760 19.715485 40.093735 32.835720 -15.631920 12.757774 3.262692 
